<svg id="etym288t0h71" xmlns="http://www.w3.org/2000/svg" xmlns:xlink="http://www.w3.org/1999/xlink" viewBox="0 0 512.001000 512.001000" shape-rendering="geometricPrecision" text-rendering="geometricPrecision"><style><![CDATA[#etym288t0h725 {animation: etym288t0h725_c_o 1000ms linear infinite normal forwards}@keyframes etym288t0h725_c_o { 0% {opacity: 0} 60% {opacity: 0} 90% {opacity: 1} 100% {opacity: 0} }#etym288t0h726 {animation: etym288t0h726_c_o 1000ms linear infinite normal forwards}@keyframes etym288t0h726_c_o { 0% {opacity: 0} 30% {opacity: 0} 60% {opacity: 1} 90% {opacity: 1} 100% {opacity: 0} }#etym288t0h727 {animation: etym288t0h727_c_o 1000ms linear infinite normal forwards}@keyframes etym288t0h727_c_o { 0% {opacity: 0} 30% {opacity: 1} 90% {opacity: 1} 100% {opacity: 0} }]]></style><path id="etym288t0h72" d="M191.701000,7.500000L341.741000,7.500000C350.012000,7.500000,356.718000,14.205000,356.718000,22.477000L356.718000,68.279000C356.718000,76.550000,350.013000,83.256000,341.741000,83.256000L299.867000,83.256000C293.423000,83.256000,287.258000,85.885000,282.798000,90.536000L272.661000,101.106000C269.421000,104.484000,264.020000,104.484000,260.780000,101.106000L250.643000,90.536000C246.183000,85.885000,240.018000,83.256000,233.574000,83.256000L191.700000,83.256000C183.429000,83.256000,176.723000,76.551000,176.723000,68.279000L176.723000,22.477000C176.724000,14.205000,183.429000,7.500000,191.701000,7.500000Z" fill="rgb(222,226,229)" stroke="none" stroke-width="1"/><path id="etym288t0h73" d="M162.297000,418.954000C160.166000,418.954000,158.004000,418.445000,155.993000,417.370000C149.466000,413.882000,147.003000,405.764000,150.491000,399.237000C157.718000,385.713000,168.648000,377.060000,172.240000,374.217000L172.535000,373.983000C178.330000,369.381000,186.758000,370.346000,191.361000,376.141000C195.964000,381.936000,194.998000,390.364000,189.204000,394.967000L188.874000,395.229000C186.098000,397.426000,178.726000,403.263000,174.127000,411.868000C171.712000,416.384000,167.082000,418.954000,162.297000,418.954000Z" fill="rgb(73,138,104)" stroke="none" stroke-width="1"/><path id="etym288t0h74" d="M274.045000,443.506000C336.574000,443.506000,408.533000,443.506000,461.212000,409.873000C470.226000,404.118000,465.013000,390.218000,454.412000,391.633000C412.695000,397.202000,377.653000,386.583000,357.671000,369.381000L274.045000,443.506000Z" fill="rgb(92,179,142)" stroke="none" stroke-width="1"/><path id="etym288t0h75" d="M381.258000,383.572000C380.561000,403.541000,377.496000,423.474000,365.186000,440.047000C334.704000,443.506000,303.339000,443.506000,274.044000,443.506000L357.670000,369.381000C364.076000,374.895000,372.035000,379.727000,381.258000,383.572000Z" opacity="0.1" fill="rgb(0,0,0)" stroke="none" stroke-width="1"/><g id="etym288t0h76"><path id="etym288t0h77" d="M302.038000,504.500000C291.370000,504.501000,282.338000,496.280000,281.506000,485.465000C281.252000,482.165000,279.931000,429.422000,285.487000,415.782000C289.783000,405.238000,301.811000,400.172000,312.356000,404.468000C322.468000,408.587000,327.541000,419.822000,324.149000,430.036000C322.671000,437.643000,321.822000,472.002000,322.614000,482.304000C323.487000,493.656000,314.991000,503.565000,303.641000,504.438000C303.103000,504.480000,302.567000,504.500000,302.038000,504.500000ZM323.679000,431.313000C323.676000,431.321000,323.673000,431.329000,323.670000,431.336000C323.673000,431.328000,323.676000,431.320000,323.679000,431.313000Z" fill="rgb(73,138,104)" stroke="none" stroke-width="1"/><path id="etym288t0h78" d="M227.277000,504.500000C216.610000,504.501000,207.577000,496.280000,206.746000,485.466000C206.492000,482.167000,205.169000,429.423000,210.727000,415.781000C215.023000,405.238000,227.055000,400.174000,237.596000,404.469000C247.708000,408.589000,252.780000,419.824000,249.388000,430.038000C247.910000,437.646000,247.060000,472.004000,247.853000,482.305000C248.726000,493.656000,240.232000,503.566000,228.880000,504.439000C228.342000,504.479000,227.807000,504.500000,227.277000,504.500000ZM248.917000,431.314000C248.914000,431.322000,248.910000,431.330000,248.907000,431.338000C248.911000,431.329000,248.914000,431.322000,248.917000,431.314000Z" fill="rgb(73,138,104)" stroke="none" stroke-width="1"/></g><path id="etym288t0h79" d="M312.356000,404.468000C301.811000,400.171000,289.783000,405.237000,285.487000,415.782000C281.409000,425.793000,281.036000,456.866000,281.227000,473.998000C296.990000,473.247000,310.623000,471.219000,322.318000,467.836000C322.391000,453.731000,323.116000,435.353000,324.149000,430.036000C327.541000,419.823000,322.468000,408.588000,312.356000,404.468000Z" opacity="0.1" fill="rgb(0,0,0)" stroke="none" stroke-width="1"/><path id="etym288t0h710" d="M237.596000,404.469000C227.055000,400.174000,215.024000,405.237000,210.727000,415.781000C207.199000,424.439000,206.444000,448.841000,206.427000,466.363000C218.016000,470.258000,231.653000,472.690000,247.568000,473.735000C247.422000,459.431000,248.203000,436.139000,249.388000,430.038000C252.780000,419.824000,247.708000,408.589000,237.596000,404.469000Z" opacity="0.1" fill="rgb(0,0,0)" stroke="none" stroke-width="1"/><path id="etym288t0h711" d="M172.606000,370.774000C172.606000,418.899000,179.143000,453.722000,266.721000,453.722000C354.299000,453.722000,360.836000,418.899000,360.836000,370.774000C360.836000,322.649000,318.699000,283.636000,266.721000,283.636000C214.743000,283.636000,172.606000,322.649000,172.606000,370.774000Z" fill="rgb(92,179,142)" stroke="none" stroke-width="1"/><path id="etym288t0h712" d="M172.606000,370.774000C172.606000,370.390000,172.616000,370.009000,172.622000,369.627000C192.225000,364.596000,231.107000,363.133000,258.165000,391.889000C277.882000,412.843000,280.735000,435.456000,278.621000,453.490000C274.831000,453.644000,270.868000,453.722000,266.722000,453.722000C179.143000,453.722000,172.606000,418.899000,172.606000,370.774000Z" fill="rgb(155,223,193)" stroke="none" stroke-width="1"/><path id="etym288t0h713" d="M284.588000,285.211000C328.021000,292.940000,360.836000,328.306000,360.836000,370.774000C360.836000,415.335000,355.221000,448.487000,284.863000,453.153000C323.928000,413.503000,316.372000,331.634000,284.588000,285.211000Z" opacity="0.05" fill="rgb(0,0,0)" stroke="none" stroke-width="1"/><path id="etym288t0h714" d="M180.333000,158.140000L180.333000,158.140000C196.404000,133.836000,223.597000,119.218000,252.734000,119.218000L288.550000,119.218000C339.470000,119.218000,380.749000,160.497000,380.749000,211.417000L380.749000,253.807000C380.749000,299.507000,343.701000,336.555000,298.001000,336.555000L108.140000,336.555000C73.905000,336.555000,46.152000,308.802000,46.152000,274.567000L46.152000,245.717000C46.152000,211.482000,73.905000,183.729000,108.140000,183.729000L132.735000,183.729000C151.890000,183.728000,169.767000,174.118000,180.333000,158.140000Z" fill="rgb(92,179,142)" stroke="none" stroke-width="1"/><g id="etym288t0h715" opacity="0.1"><circle id="etym288t0h716" r="6.345000" transform="matrix(1 0 0 1 330.67000000000002 273.94999999999999)" fill="rgb(0,0,0)" stroke="none" stroke-width="1"/><circle id="etym288t0h717" r="6.345000" transform="matrix(1 0 0 1 285.56000000000000 283.63999999999999)" fill="rgb(0,0,0)" stroke="none" stroke-width="1"/><circle id="etym288t0h718" r="6.345000" transform="matrix(1 0 0 1 311.37000000000000 305.27999999999997)" fill="rgb(0,0,0)" stroke="none" stroke-width="1"/></g><g id="etym288t0h719"><ellipse id="etym288t0h720" rx="15.993000" ry="8.205000" transform="matrix(1 0 0 1 309.68000000000001 178.93000000000001)" fill="rgb(255,168,203)" stroke="none" stroke-width="1"/><ellipse id="etym288t0h721" rx="15.993000" ry="8.205000" transform="matrix(1 0 0 1 202.31000000000000 178.93000000000001)" fill="rgb(255,168,203)" stroke="none" stroke-width="1"/></g><path id="etym288t0h722" d="M309.032000,121.505000C350.093000,130.820000,380.749000,167.537000,380.749000,211.417000L380.749000,253.807000C380.749000,299.507000,343.701000,336.555000,298.001000,336.555000L247.789000,336.555000C320.916000,294.007000,333.310000,177.051000,309.032000,121.505000Z" opacity="0.05" fill="rgb(0,0,0)" stroke="none" stroke-width="1"/><path id="etym288t0h723" d="M274.736000,398.909000C273.077000,398.909000,271.391000,398.599000,269.758000,397.945000C253.551000,391.454000,242.950000,380.590000,238.249000,365.656000C236.028000,358.597000,239.948000,351.074000,247.007000,348.852000C254.066000,346.629000,261.589000,350.550000,263.811000,357.610000C266.074000,364.800000,270.982000,369.567000,279.722000,373.068000C286.592000,375.819000,289.929000,383.619000,287.179000,390.488000C285.081000,395.724000,280.052000,398.909000,274.736000,398.909000Z" fill="rgb(73,138,104)" stroke="none" stroke-width="1"/><g id="etym288t0h724"><circle id="etym288t0h725" r="12.869000" transform="matrix(1 0 0 1 319.42000000000002 45.38000000000000)" opacity="0" fill="rgb(73,80,89)" stroke="none" stroke-width="1"/><circle id="etym288t0h726" r="12.869000" transform="matrix(1 0 0 1 266.72000000000003 45.38000000000000)" opacity="0" fill="rgb(73,80,89)" stroke="none" stroke-width="1"/><circle id="etym288t0h727" r="12.869000" transform="matrix(1 0 0 1 214.03000000000000 45.38000000000000)" opacity="0" fill="rgb(73,80,89)" stroke="none" stroke-width="1"/></g><path id="etym288t0h728" d="M186.152000,90.064000C190.164000,91.081000,194.248000,88.657000,195.269000,84.643000C196.289000,80.628000,193.862000,76.547000,189.848000,75.526000C186.537000,74.685000,184.224000,71.705000,184.224000,68.279000L184.224000,22.477000C184.224000,18.354000,187.578000,15,191.701000,15L341.741000,15C345.864000,15,349.218000,18.354000,349.218000,22.477000L349.218000,68.280000C349.218000,72.403000,345.865000,75.757000,341.741000,75.757000L299.867000,75.757000C291.424000,75.757000,283.229000,79.252000,277.385000,85.345000L267.246000,95.915000C266.961000,96.213000,266.479000,96.213000,266.192000,95.914000L256.055000,85.345000C250.211000,79.252000,242.017000,75.757000,233.574000,75.757000L221.215000,75.757000C217.073000,75.757000,213.715000,79.115000,213.715000,83.257000C213.715000,87.399000,217.073000,90.757000,221.215000,90.757000L233.574000,90.757000C237.951000,90.757000,242.199000,92.569000,245.229000,95.728000L255.366000,106.297000C258.318000,109.375000,262.457000,111.140000,266.721000,111.139000C270.985000,111.139000,275.122000,109.373000,278.073000,106.297000L288.211000,95.728000C291.240000,92.569000,295.489000,90.757000,299.866000,90.757000L341.740000,90.757000C354.133000,90.757000,364.217000,80.674000,364.217000,68.280000L364.217000,22.477000C364.218000,10.083000,354.135000,0,341.741000,0L191.701000,0C179.307000,0,169.224000,10.083000,169.224000,22.477000L169.224000,68.280000C169.224000,78.572000,176.185000,87.530000,186.152000,90.064000ZM106.534000,216.107000C106.534000,212.603000,103.693000,209.762000,100.189000,209.762000C96.685000,209.762000,93.844000,212.603000,93.844000,216.107000C93.844000,219.611000,96.685000,222.452000,100.189000,222.452000C103.693000,222.452000,106.534000,219.612000,106.534000,216.107000ZM472.238000,395.562000C469.345000,387.649000,461.787000,383.082000,453.420000,384.200000C420.643000,388.577000,389.166000,382.556000,368.283000,368.082000C367.813000,352.424000,363.257000,337.296000,354.963000,323.811000C375.436000,307.117000,388.249000,281.730000,388.249000,253.808000L388.249000,211.418000C388.249000,156.444000,343.524000,111.719000,288.550000,111.719000L252.734000,111.719000C220.991000,111.719000,191.586000,127.527000,174.077000,154.005000C164.874000,167.922000,149.420000,176.230000,132.736000,176.230000L108.140000,176.230000C69.824000,176.230000,38.652000,207.402000,38.652000,245.718000L38.652000,274.568000C38.652000,312.884000,69.824000,344.056000,108.140000,344.056000L169.217000,344.056000C166.533000,352.547000,165.155000,361.345000,165.112000,370.336000C159.952000,374.608000,150.556000,383.205000,143.877000,395.703000C141.246000,400.626000,140.689000,406.280000,142.310000,411.622000C143.931000,416.964000,147.535000,421.355000,152.457000,423.985000C155.480000,425.601000,158.882000,426.456000,162.297000,426.456000C166.307000,426.456000,170.132000,425.309000,173.399000,423.263000C175.438000,427.487000,177.969000,431.482000,181.120000,435.169000C185.910000,440.774000,191.897000,445.432000,199.200000,449.186000C198.654000,466.069000,199.075000,483.530000,199.268000,486.042000C200.388000,500.599000,212.691000,512.002000,227.277000,512.001000C228,512.001000,228.733000,511.973000,229.455000,511.917000C236.942000,511.341000,243.757000,507.884000,248.644000,502.182000C253.531000,496.480000,255.906000,489.217000,255.329000,481.730000C255.039000,477.952000,254.975000,469.984000,255.137000,461.008000C258.863000,461.151000,262.722000,461.223000,266.719000,461.223000C269.102000,461.223000,271.427000,461.193000,273.713000,461.143000C273.592000,473.855000,273.900000,484.398000,274.026000,486.041000C275.146000,500.599000,287.450000,512.002000,302.036000,512C302.761000,512,303.495000,511.972000,304.214000,511.917000C311.701000,511.341000,318.516000,507.884000,323.403000,502.183000C328.291000,496.481000,330.665000,489.218000,330.089000,481.730000C329.682000,476.428000,329.725000,463.413000,330.158000,451.130000C330.931000,450.789000,331.690000,450.440000,332.437000,450.082000C372.787000,448.233000,423.935000,442.570000,465.247000,416.195000C472.296000,411.695000,475.105000,403.403000,472.238000,395.562000ZM167.511000,408.333000C166.482000,410.258000,164.484000,411.455000,162.297000,411.455000C161.327000,411.455000,160.397000,411.220000,159.528000,410.756000C158.138000,410.013000,157.121000,408.774000,156.664000,407.266000C156.206000,405.758000,156.363000,404.162000,157.106000,402.773000C159.637000,398.037000,162.700000,393.954000,165.694000,390.567000C166.118000,396.296000,166.838000,401.945000,168.041000,407.399000C167.864000,407.710000,167.677000,408.023000,167.511000,408.333000ZM237.256000,492.419000C234.976000,495.078000,231.797000,496.691000,228.303000,496.960000C221.068000,497.509000,214.772000,492.020000,214.224000,484.893000C214.110000,483.331000,213.738000,469.832000,214.048000,455.044000C221.705000,457.323000,230.381000,458.957000,240.157000,459.969000C239.989000,468.766000,240,478.002000,240.375000,482.879000C240.643000,486.372000,239.536000,489.760000,237.256000,492.419000ZM312.017000,492.420000C309.738000,495.080000,306.558000,496.692000,303.064000,496.960000C295.839000,497.519000,289.532000,492.020000,288.985000,484.894000C288.903000,483.772000,288.583000,473.223000,288.725000,460.390000C298.496000,459.595000,307.232000,458.224000,315.001000,456.255000C314.738000,466.590000,314.718000,477.440000,315.136000,482.880000C315.404000,486.373000,314.296000,489.761000,312.017000,492.420000ZM340.920000,425.422000C339.052000,427.607000,335.562000,431.687000,327.846000,435.659000C327.389000,435.833000,326.955000,436.050000,326.547000,436.306000C315.905000,441.447000,297.877000,446.221000,266.721000,446.221000C238.548000,446.221000,221.107000,442.317000,210.157000,437.768000C209.921000,437.653000,209.679000,437.549000,209.430000,437.459000C198.982000,432.973000,194.675000,427.938000,192.523000,425.421000C184.857000,416.451000,180.106000,404.181000,180.106000,370.773000C180.106000,361.570000,181.801000,352.605000,185.121000,344.053000L239.765000,344.053000C232.023000,349.019000,228.205000,358.721000,231.096000,367.906000C236.505000,385.089000,248.574000,397.538000,266.970000,404.905000C268.451000,405.498000,269.998000,405.922000,271.567000,406.164000C271.954000,406.224000,272.338000,406.252000,272.719000,406.252000C276.356000,406.252000,279.550000,403.600000,280.121000,399.894000C280.753000,395.800000,277.945000,391.970000,273.851000,391.338000C273.409000,391.270000,272.969000,391.149000,272.545000,390.980000C258.527000,385.366000,249.395000,376.087000,245.402000,363.402000C244.425000,360.299000,246.155000,356.980000,249.258000,356.003000C252.362000,355.028000,255.680000,356.756000,256.657000,359.859000C259.617000,369.264000,266.060000,375.672000,276.934000,380.028000C278.526000,380.666000,279.412000,381.778000,279.874000,382.598000C281.908000,386.206000,286.484000,387.482000,290.091000,385.447000C293.699000,383.412000,294.975000,378.838000,292.941000,375.230000C290.616000,371.107000,286.912000,367.866000,282.512000,366.104000C274.302000,362.816000,272.111000,358.995000,270.966000,355.355000C269.438000,350.503000,266.291000,346.604000,262.309000,344.053000L279.210000,344.053000C283.353000,344.053000,286.710000,340.695000,286.710000,336.553000C286.710000,332.411000,283.353000,329.053000,279.210000,329.053000L108.140000,329.053000C78.095000,329.053000,53.652000,304.610000,53.652000,274.565000L53.652000,245.715000C53.652000,215.670000,78.095000,191.227000,108.140000,191.227000L132.736000,191.227000C154.469000,191.227000,174.602000,180.404000,186.589000,162.276000C191.492000,154.861000,197.509000,148.449000,204.334000,143.184000C204.930000,146.427000,207.624000,149.006000,211.068000,149.299000L216.920000,149.797000C215.786000,151.111000,215.095000,152.819000,215.095000,154.691000L215.095000,162.660000C215.095000,166.802000,218.453000,170.160000,222.595000,170.160000C226.737000,170.160000,230.095000,166.802000,230.095000,162.660000L230.095000,154.691000C230.095000,153.143000,229.626000,151.706000,228.822000,150.512000C232.014000,149.876000,234.537000,147.198000,234.827000,143.792000C235.178000,139.665000,232.117000,136.035000,227.989000,135.684000L217.778000,134.816000C228.482000,129.563000,240.397000,126.718000,252.734000,126.718000L288.550000,126.718000C335.253000,126.718000,373.249000,164.714000,373.249000,211.417000L373.249000,253.807000C373.249000,279.127000,360.620000,301.948000,340.878000,315.660000C340.700000,315.769000,340.522000,315.880000,340.351000,316.006000C340.301000,316.042000,340.258000,316.083000,340.209000,316.120000C331.900000,321.759000,322.369000,325.807000,311.998000,327.757000C307.927000,328.523000,305.248000,332.443000,306.013000,336.514000C306.779000,340.585000,310.705000,343.265000,314.770000,342.499000C324.763000,340.620000,334.102000,337.110000,342.561000,332.303000C349.624000,344.039000,353.338000,357.205000,353.338000,370.774000C353.337000,395.543000,351.260000,413.324000,340.920000,425.422000ZM457.176000,403.552000C425.790000,423.591000,387.500000,430.781000,353.529000,433.698000C364.188000,420.280000,367.231000,403.113000,368.051000,385.532000C391.470000,398.353000,423.033000,403.390000,455.405000,399.068000C457.095000,398.844000,457.831000,399.838000,458.151000,400.712000C458.587000,401.905000,458.259000,402.861000,457.176000,403.552000ZM300.324000,135.011000L284.617000,134.973000L284.598000,134.973000C280.464000,134.973000,277.108000,138.319000,277.098000,142.454000C277.089000,146.268000,279.931000,149.418000,283.615000,149.901000C282.535000,151.200000,281.885000,152.869000,281.885000,154.691000L281.885000,162.660000C281.885000,166.802000,285.242000,170.160000,289.385000,170.160000C293.528000,170.160000,296.885000,166.802000,296.885000,162.660000L296.885000,154.691000C296.885000,152.914000,296.264000,151.284000,295.231000,149.999000L300.286000,150.011000L300.304000,150.011000C304.438000,150.011000,307.794000,146.665000,307.804000,142.530000C307.815000,138.387000,304.466000,135.021000,300.324000,135.011000ZM140.627000,209.762000C137.123000,209.762000,134.282000,212.603000,134.282000,216.107000C134.282000,219.611000,137.123000,222.452000,140.627000,222.452000C144.131000,222.452000,146.972000,219.611000,146.972000,216.107000C146.972000,212.603000,144.131000,209.762000,140.627000,209.762000ZM139.601000,284.111000C133.087000,279.818000,124.656000,277.548000,115.218000,277.548000L107.617000,277.548000C103.475000,277.548000,100.117000,280.906000,100.117000,285.048000C100.117000,289.190000,103.475000,292.548000,107.617000,292.548000L115.218000,292.548000C121.620000,292.548000,127.348000,293.999000,131.347000,296.635000C132.618000,297.473000,134.051000,297.874000,135.468000,297.874000C137.905000,297.874000,140.296000,296.687000,141.737000,294.500000C144.015000,291.043000,143.059000,286.391000,139.601000,284.111000Z" fill="rgb(0,0,0)" stroke="none" stroke-width="1"/></svg>